<svg width="302" height="302" viewBox="0 0 302 302" fill="none" xmlns="http://www.w3.org/2000/svg">
<g clip-path="url(#clip0)" filter="url(#filter0_d)">
<path d="M65.055 139.822C65.0547 138.182 65.3785 136.558 66.0077 135.044C66.6368 133.529 67.559 132.154 68.7213 130.997C69.8836 129.84 71.263 128.924 72.7803 128.301C74.2977 127.679 75.923 127.363 77.563 127.37L98.3 127.438C101.606 127.438 104.777 128.752 107.116 131.09C109.454 133.428 110.767 136.599 110.767 139.905V218.319C113.103 217.627 116.099 216.889 119.381 216.119C121.66 215.583 123.691 214.293 125.144 212.458C126.598 210.623 127.389 208.35 127.39 206.009V108.743C127.39 107.106 127.712 105.484 128.339 103.972C128.965 102.459 129.884 101.084 131.041 99.9261C132.199 98.7682 133.574 97.8496 135.086 97.2228C136.599 96.5961 138.221 96.2734 139.858 96.2733H160.636C163.942 96.2738 167.113 97.5875 169.451 99.9254C171.789 102.263 173.102 105.434 173.103 108.74V199.019C173.103 199.019 178.303 196.913 183.372 194.774C185.254 193.978 186.86 192.645 187.99 190.942C189.12 189.239 189.723 187.241 189.725 185.197V77.5703C189.725 75.9332 190.047 74.312 190.674 72.7995C191.3 71.2869 192.218 69.9126 193.376 68.7549C194.533 67.5972 195.908 66.6789 197.42 66.0523C198.933 65.4258 200.554 65.1033 202.191 65.1033H222.969C226.276 65.1033 229.447 66.4168 231.785 68.7548C234.123 71.0927 235.437 74.2638 235.437 77.5703V166.195C253.451 153.14 271.708 137.437 286.196 118.556C288.298 115.816 289.689 112.597 290.245 109.188C290.8 105.779 290.504 102.286 289.381 99.0193C279.578 70.4505 261.19 45.6069 236.732 27.8854C212.273 10.1638 182.938 0.429483 152.737 0.0133118C71.298 -1.08069 3.99301 65.3983 4.00101 146.847C3.92105 172.62 10.6478 197.958 23.501 220.297C25.2736 223.353 27.8813 225.839 31.0179 227.464C34.1544 229.089 37.6896 229.785 41.208 229.47C45.139 229.124 50.033 228.635 55.851 227.952C58.3833 227.664 60.7212 226.455 62.4194 224.554C64.1176 222.654 65.0574 220.195 65.06 217.646V139.822" fill="#6B7280"/>
<path d="M64.603 265.581C86.505 281.514 112.388 291.078 139.387 293.214C166.387 295.35 193.452 289.976 217.587 277.685C241.722 265.395 261.987 246.667 276.139 223.575C290.291 200.482 297.779 173.924 297.775 146.84C297.775 143.459 297.618 140.116 297.392 136.791C243.75 216.791 144.706 254.191 64.602 265.584" fill="#6B7280"/>
</g>
<defs>
<filter id="filter0_d" x="0" y="0" width="301.775" height="301.671" filterUnits="userSpaceOnUse" color-interpolation-filters="sRGB">
<feFlood flood-opacity="0" result="BackgroundImageFix"/>
<feColorMatrix in="SourceAlpha" type="matrix" values="0 0 0 0 0 0 0 0 0 0 0 0 0 0 0 0 0 0 127 0" result="hardAlpha"/>
<feOffset dy="4"/>
<feGaussianBlur stdDeviation="2"/>
<feComposite in2="hardAlpha" operator="out"/>
<feColorMatrix type="matrix" values="0 0 0 0 0 0 0 0 0 0 0 0 0 0 0 0 0 0 0.25 0"/>
<feBlend mode="normal" in2="BackgroundImageFix" result="effect1_dropShadow"/>
<feBlend mode="normal" in="SourceGraphic" in2="effect1_dropShadow" result="shape"/>
</filter>
<clipPath id="clip0">
<rect width="293.775" height="293.671" fill="white" transform="translate(4)"/>
</clipPath>
</defs>
</svg>
