<svg id="icon" height="512" viewBox="0 0 128 128" width="512" xmlns="http://www.w3.org/2000/svg"><path d="m106 59.661c0 9.552-18.8 15.546-42 15.546-19.746 0-36.311-4.175-40.8-11.308a7.382 7.382 0 0 1 -1.2-4c0-11.69 18.8-19.275 42-19.275 15.432 0 28.916 3.424 36.215 9.049 3.679 2.816 5.785 6.201 5.785 9.988z" fill="#575b6d"/><path d="m102.424 56.078c0 9.552-18.8 15.553-42 15.553-16.17 0-30.2-2.8-37.221-7.732a7.382 7.382 0 0 1 -1.2-4c0-11.69 18.8-19.275 42-19.275 15.432 0 28.916 3.424 36.215 9.049a10.763 10.763 0 0 1 2.206 6.405z" fill="#62667c"/><path d="m94.955 56.954s-1.591-41.154-16.439-35.212c-3.871.689-9.652 6.2-14.513 6.1-4.862.106-10.642-5.409-14.513-6.1-14.849-5.942-16.44 35.212-16.44 35.212 0 8.202 57.061 8.591 61.905 0z" fill="#575b6d"/><path d="m94.955 56.954c-4.843 8.591-61.905 8.2-61.905 0 0 0 .159-3.914.84-9.081 6.739 6.262 52.023 6.338 60.143-.573.751 5.448.922 9.654.922 9.654z" fill="#dbd8dd"/><path d="m65.946 83.2h31.954a0 0 0 0 1 0 0v3.67a15.976 15.976 0 0 1 -15.976 15.976 15.976 15.976 0 0 1 -15.978-15.978v-3.668a0 0 0 0 1 0 0z" fill="#62667c"/><path d="m30.107 83.2h31.953a0 0 0 0 1 0 0v3.67a15.976 15.976 0 0 1 -15.976 15.976 15.976 15.976 0 0 1 -15.977-15.978v-3.668a0 0 0 0 1 0 0z" fill="#62667c"/><rect fill="#575b6d" height="4.222" rx="2.111" width="74.652" x="26.676" y="79.935"/><g fill="#dbd8dd"><path d="m77.615 98.255a.843.843 0 0 1 -.328-.065 12.267 12.267 0 0 1 -5.373-4.29.864.864 0 0 1 1.412-.994 10.549 10.549 0 0 0 4.617 3.69.863.863 0 0 1 -.328 1.662z"/><path d="m40.677 98.523a.851.851 0 0 1 -.328-.065 12.254 12.254 0 0 1 -5.373-4.292.864.864 0 0 1 1.412-.994 10.543 10.543 0 0 0 4.617 3.689.863.863 0 0 1 -.328 1.662z"/></g></svg>