<svg width="32" height="32" viewBox="0 0 32 32" fill="none" xmlns="http://www.w3.org/2000/svg">
<g clip-path="url(#clip0)">
<path d="M14.8571 4.39403C14.8571 3.92259 14.8571 0.474726 14.8571 0.000976562H3.42856C1.53806 0.000976562 0 1.53897 0 3.42953V14.8581C0.519937 14.8581 5.31068 14.8581 5.93143 14.8581C6.71017 14.8581 7.26442 15.624 7.01449 16.3658C6.95299 16.5484 6.31399 17.4186 6.92617 18.4788C7.66067 19.7508 9.48261 19.7503 10.2167 18.4788C10.5596 17.8849 10.5678 17.172 10.2216 16.5724C9.78198 15.8108 10.3336 14.8581 11.2114 14.8581H14.8571V12.7507C14.8043 12.7556 14.7515 12.7594 14.6987 12.7622C12.4327 12.8825 10.2857 11.0983 10.2857 8.57234C10.2857 5.99334 12.5268 4.17997 14.8571 4.39403Z" fill="black"/>
<path d="M28.5714 0H17.1428C17.1428 0.519937 17.1428 5.31068 17.1428 5.93143C17.1428 6.81074 16.1888 7.36017 15.4287 6.92124C14.1838 6.20286 12.5714 7.08042 12.5714 8.57142C12.5714 10.0642 14.185 10.9394 15.4287 10.2216C16.1903 9.78198 17.1428 10.3336 17.1428 11.2114V14.8571H19.2502C19.1722 14.0068 19.3605 13.1471 19.8039 12.3791C21.418 9.58367 25.4433 9.59092 27.0533 12.3791C27.4928 13.1402 27.6854 14.0022 27.607 14.857C28.0784 14.857 31.5263 14.857 32.0001 14.857V3.42856C31.9999 1.538 30.4619 0 28.5714 0Z" fill="black"/>
<path d="M26.0684 17.1431C25.1891 17.1431 24.6398 16.1891 25.0786 15.4289C25.4289 14.822 25.4124 14.1091 25.0737 13.5224C24.3474 12.2647 22.5214 12.2438 21.7832 13.5224C21.4464 14.1058 21.4268 14.8199 21.7783 15.4289C22.2192 16.1928 21.6637 17.1431 20.7884 17.1431H17.1427V19.2496C17.9869 19.1721 18.8473 19.3567 19.6206 19.8032C22.4165 21.4176 22.4094 25.4425 19.6206 27.0527C18.8473 27.4992 17.9868 27.6839 17.1427 27.6064C17.1427 28.0779 17.1427 31.5269 17.1427 32.0001H28.5712C30.4617 32.0001 31.9998 30.462 31.9998 28.5715V17.1431C31.4799 17.1431 26.6891 17.1431 26.0684 17.1431Z" fill="black"/>
<path d="M18.4778 21.7832C17.4008 21.1612 16.5772 21.8177 16.2933 21.893C15.567 22.086 14.8572 21.5365 14.8572 20.7884V17.1436H12.7498C12.8273 17.9877 12.6427 18.8482 12.1961 19.6215C10.5833 22.4149 6.55855 22.4132 4.94668 19.6215C4.50012 18.8482 4.31549 17.9877 4.39299 17.1436C3.92156 17.1436 0.473749 17.1436 0 17.1436V28.5721C0 30.4626 1.53806 32.0007 3.42856 32.0007H14.8571C14.8571 31.4842 14.8571 26.688 14.8571 26.0685C14.8571 25.1892 15.8112 24.6397 16.5713 25.0787C17.1756 25.4275 17.8885 25.414 18.4777 25.0737C19.7576 24.3348 19.7363 22.5099 18.4778 21.7832Z" fill="black"/>
</g>
<defs>
<clipPath id="clip0">
<rect width="32" height="32" fill="white"/>
</clipPath>
</defs>
</svg>
