<svg width="120" height="120" viewBox="0 0 120 120" fill="none" xmlns="http://www.w3.org/2000/svg">
<rect width="120" height="120" fill="black"/>
<path d="M27.376 77V47.528H18.208V41.96H42.592V47.528H33.424V77H27.376ZM46.4613 77L55.2933 41.96H63.0213L71.9012 77H65.7573L63.8373 68.504H54.5253L52.6053 77H46.4613ZM55.6293 63.608H62.7333L60.6213 54.2C60.2693 52.632 59.9653 51.224 59.7093 49.976C59.4533 48.696 59.2773 47.768 59.1813 47.192C59.0853 47.768 58.9093 48.696 58.6533 49.976C58.4293 51.224 58.1253 52.616 57.7413 54.152L55.6293 63.608ZM77.3545 77V71.288L91.4185 47.528H77.6905V41.96H98.0425V47.672L83.9305 71.432H98.5705V77H77.3545Z" fill="white"/>
</svg>
