<svg width="480" height="480" viewBox="0 0 480 480" fill="none" xmlns="http://www.w3.org/2000/svg">
<path d="M171.557 390H202.853C202.767 377.157 205.498 365.189 211.044 354.096C216.634 342.96 223.887 332.635 232.805 323.12V303.6H156.965V323.248H201.893V323.568C193.274 331.12 186.042 340.741 180.197 352.432C174.394 364.123 171.514 376.645 171.557 390Z" fill="#1F2937"/>
<path d="M239.051 390H268.107V354.608L290.635 390H323.148L294.411 346.864L323.148 303.6H290.635L268.107 339.056V303.6H239.051V390Z" fill="#1F2937"/>
<path fill-rule="evenodd" clip-rule="evenodd" d="M0 240C0 107.452 107.452 0 240 0C372.548 0 480 107.452 480 240C480 372.548 372.548 480 240 480C107.452 480 0 372.548 0 240ZM345.677 109.104C357.044 107.749 367.878 104.738 377.956 100.28C370.421 111.519 360.893 121.389 349.913 129.289C350.021 131.694 350.076 134.11 350.076 136.54C350.076 193.841 316.234 257.928 253.037 284H364C377.255 284 388 294.745 388 308V380C388 393.255 377.255 404 364 404H118C104.745 404 94 393.255 94 380V308C94 294.745 104.745 284 118 284H129.321C120.454 280.348 111.986 275.925 104 270.819C108.397 271.337 112.871 271.603 117.408 271.603C143.742 271.603 167.976 262.643 187.212 247.61C162.616 247.16 141.86 230.956 134.707 208.692C138.139 209.344 141.66 209.697 145.281 209.697C150.407 209.697 155.373 209.012 160.089 207.731C134.376 202.579 115.002 179.929 115.002 152.776C115.002 152.54 115.002 152.304 115.009 152.071C122.586 156.268 131.253 158.79 140.466 159.081C125.385 149.031 115.462 131.877 115.462 112.433C115.462 102.161 118.234 92.5347 123.072 84.2576C150.794 118.165 192.209 140.478 238.921 142.815C237.962 138.713 237.465 134.435 237.465 130.043C237.465 99.0922 262.632 74 293.672 74C309.838 74 324.445 80.8047 334.697 91.6974C347.5 89.1842 359.528 84.5212 370.389 78.0976C366.194 91.1853 357.28 102.168 345.677 109.104Z" fill="#1F2937"/>
</svg>
