<svg width="480" height="480" viewBox="0 0 480 480" fill="none" xmlns="http://www.w3.org/2000/svg">
<path fill-rule="evenodd" clip-rule="evenodd" d="M240 0C107.452 0 0 107.452 0 240C0 372.548 107.452 480 240 480C372.548 480 480 372.548 480 240C480 107.452 372.548 0 240 0ZM377.957 156.279C367.879 160.737 357.044 163.749 345.677 165.104C357.28 158.168 366.194 147.185 370.389 134.098C359.528 140.521 347.5 145.184 334.697 147.697C324.445 136.805 309.838 130 293.672 130C262.632 130 237.465 155.092 237.465 186.043C237.465 190.435 237.962 194.713 238.921 198.815C192.209 196.478 150.794 174.165 123.072 140.258C118.234 148.535 115.462 158.161 115.462 168.433C115.462 187.877 125.385 205.031 140.466 215.081C131.253 214.79 122.586 212.268 115.009 208.071C115.002 208.305 115.002 208.54 115.002 208.776C115.002 235.929 134.376 258.579 160.089 263.731C155.373 265.012 150.407 265.697 145.281 265.697C141.66 265.697 138.139 265.344 134.707 264.691C141.86 286.956 162.616 303.16 187.212 303.61C167.976 318.643 143.742 327.603 117.408 327.603C112.871 327.603 108.397 327.337 104 326.819C128.874 342.722 158.418 352 190.158 352C293.54 352 350.076 266.602 350.076 192.54C350.076 190.11 350.021 187.694 349.913 185.289C360.893 177.389 370.422 167.519 377.957 156.279Z" fill="#1F2937"/>
</svg>
