<svg width="480" height="480" viewBox="0 0 480 480" fill="none" xmlns="http://www.w3.org/2000/svg">
<path d="M155.482 390H234.074V370.288H186.01C186.01 369.179 187.609 368.005 190.81 366.768C194.052 365.488 199.066 363.504 205.85 360.816C214.084 357.019 220.868 352.837 226.202 348.272C231.535 343.707 234.202 337.797 234.202 330.544C234.202 324.443 232.111 318.299 227.93 312.112C223.748 305.925 213.06 302.832 195.866 302.832C179.14 302.832 168.196 306.075 163.034 312.56C157.871 319.045 155.29 326.021 155.29 333.488H184.154C184.154 328.752 185.199 325.744 187.29 324.464C189.38 323.184 192.239 322.544 195.866 322.544C198.895 322.544 201.178 323.056 202.714 324.08C204.25 325.104 205.018 327.408 205.018 330.992C205.018 333.595 204.079 335.664 202.202 337.2C200.324 338.736 194.628 341.232 185.113 344.688C175.172 348.571 167.748 352.709 162.841 357.104C157.935 361.456 155.482 366.832 155.482 373.232V390Z" fill="#1F2937"/>
<path d="M243.926 390H272.982V354.608L295.51 390H328.023L299.286 346.864L328.023 303.6H295.51L272.982 339.056V303.6H243.926V390Z" fill="#1F2937"/>
<path fill-rule="evenodd" clip-rule="evenodd" d="M0 240C0 107.452 107.452 0 240 0C372.548 0 480 107.452 480 240C480 372.548 372.548 480 240 480C107.452 480 0 372.548 0 240ZM345.677 109.104C357.044 107.749 367.878 104.738 377.956 100.28C370.421 111.519 360.893 121.389 349.913 129.289C350.021 131.694 350.076 134.11 350.076 136.54C350.076 193.841 316.234 257.928 253.037 284H364C377.255 284 388 294.745 388 308V380C388 393.255 377.255 404 364 404H118C104.745 404 94 393.255 94 380V308C94 294.745 104.745 284 118 284H129.321C120.454 280.348 111.986 275.925 104 270.819C108.397 271.337 112.871 271.603 117.408 271.603C143.742 271.603 167.976 262.643 187.212 247.61C162.616 247.16 141.86 230.956 134.707 208.692C138.139 209.344 141.66 209.697 145.281 209.697C150.407 209.697 155.373 209.012 160.089 207.731C134.376 202.579 115.002 179.929 115.002 152.776C115.002 152.54 115.002 152.304 115.009 152.071C122.586 156.268 131.253 158.79 140.466 159.081C125.385 149.031 115.462 131.877 115.462 112.433C115.462 102.161 118.234 92.5347 123.072 84.2576C150.794 118.165 192.209 140.478 238.921 142.815C237.962 138.713 237.465 134.435 237.465 130.043C237.465 99.0922 262.632 74 293.672 74C309.838 74 324.445 80.8047 334.697 91.6974C347.5 89.1842 359.528 84.5212 370.389 78.0976C366.194 91.1853 357.28 102.168 345.677 109.104Z" fill="#1F2937"/>
</svg>
