<svg width="480" height="480" viewBox="0 0 480 480" fill="none" xmlns="http://www.w3.org/2000/svg">
<path d="M151.585 390.896C168.097 390.896 179.041 387.952 184.417 382.064C189.793 376.176 192.481 368.603 192.481 359.344C192.481 351.237 190.369 344.645 186.145 339.568C181.921 334.448 174.625 331.888 164.257 331.888C156.627 331.888 149.459 333.178 142.753 335.757V323.184H189.985V303.6H113.889V354.288H142.753C142.966 352.709 143.948 351.493 145.697 350.64C147.489 349.787 149.942 349.36 153.057 349.36C156.257 349.36 158.71 349.936 160.417 351.088C162.166 352.197 163.041 355.12 163.041 359.856C163.041 365.488 162.188 368.901 160.481 370.096C158.774 371.248 156.3 371.824 153.057 371.824C149.9 371.824 147.425 371.419 145.633 370.608C143.841 369.755 142.881 367.003 142.753 362.352H113.889C113.889 369.776 116.556 376.389 121.889 382.192C127.265 387.995 137.164 390.896 151.585 390.896Z" fill="#1F2937"/>
<path fill-rule="evenodd" clip-rule="evenodd" d="M239.679 391.024C252.82 391.024 262.591 388.912 268.991 384.688C275.391 380.421 278.591 373.659 278.591 364.4V329.456C278.591 320.197 275.391 313.456 268.991 309.232C262.591 304.965 252.82 302.832 239.679 302.832C226.538 302.832 216.746 304.965 210.303 309.232C203.903 313.456 200.703 320.197 200.703 329.456V364.4C200.703 373.659 203.882 380.421 210.239 384.688C216.639 388.912 226.452 391.024 239.679 391.024ZM239.679 371.312C236.01 371.312 233.428 370.693 231.935 369.456C230.484 368.176 229.759 366.085 229.759 363.184V330.608C229.759 327.707 230.484 325.637 231.935 324.4C233.428 323.163 236.01 322.544 239.679 322.544C243.178 322.544 245.674 323.184 247.167 324.464C248.703 325.701 249.471 327.749 249.471 330.608V363.184C249.471 366.043 248.703 368.112 247.167 369.392C245.631 370.672 243.135 371.312 239.679 371.312Z" fill="#1F2937"/>
<path fill-rule="evenodd" clip-rule="evenodd" d="M325.679 391.024C338.82 391.024 348.591 388.912 354.991 384.688C361.391 380.421 364.591 373.659 364.591 364.4V329.456C364.591 320.197 361.391 313.456 354.991 309.232C348.591 304.965 338.82 302.832 325.679 302.832C312.538 302.832 302.746 304.965 296.303 309.232C289.903 313.456 286.703 320.197 286.703 329.456V364.4C286.703 373.659 289.882 380.421 296.239 384.688C302.639 388.912 312.452 391.024 325.679 391.024ZM325.679 371.312C322.01 371.312 319.428 370.693 317.935 369.456C316.484 368.176 315.759 366.085 315.759 363.184V330.608C315.759 327.707 316.484 325.637 317.935 324.4C319.428 323.163 322.01 322.544 325.679 322.544C329.178 322.544 331.674 323.184 333.167 324.464C334.703 325.701 335.471 327.749 335.471 330.608V363.184C335.471 366.043 334.703 368.112 333.167 369.392C331.631 370.672 329.135 371.312 325.679 371.312Z" fill="#1F2937"/>
<path fill-rule="evenodd" clip-rule="evenodd" d="M0 240C0 107.452 107.452 0 240 0C372.548 0 480 107.452 480 240C480 372.548 372.548 480 240 480C107.452 480 0 372.548 0 240ZM345.677 109.104C357.044 107.749 367.878 104.738 377.956 100.28C370.421 111.519 360.893 121.389 349.913 129.289C350.021 131.694 350.076 134.11 350.076 136.54C350.076 193.841 316.234 257.928 253.037 284H364C377.255 284 388 294.745 388 308V380C388 393.255 377.255 404 364 404H118C104.745 404 94 393.255 94 380V308C94 294.745 104.745 284 118 284H129.321C120.454 280.348 111.986 275.925 104 270.819C108.397 271.337 112.871 271.603 117.408 271.603C143.742 271.603 167.976 262.643 187.212 247.61C162.616 247.16 141.86 230.956 134.707 208.692C138.139 209.344 141.66 209.697 145.281 209.697C150.407 209.697 155.373 209.012 160.089 207.731C134.376 202.579 115.002 179.929 115.002 152.776C115.002 152.54 115.002 152.304 115.009 152.071C122.586 156.268 131.253 158.79 140.466 159.081C125.385 149.031 115.462 131.877 115.462 112.433C115.462 102.161 118.234 92.5347 123.072 84.2576C150.794 118.165 192.209 140.478 238.921 142.815C237.962 138.713 237.465 134.435 237.465 130.043C237.465 99.0922 262.632 74 293.672 74C309.838 74 324.445 80.8047 334.697 91.6974C347.5 89.1842 359.528 84.5212 370.389 78.0976C366.194 91.1853 357.28 102.168 345.677 109.104Z" fill="#1F2937"/>
</svg>
