<svg width="280" height="326" viewBox="0 0 280 326" fill="none" xmlns="http://www.w3.org/2000/svg">
<path d="M67.5 133L24 91.5L20 6L34.5 0L128 76L133 111.5L142 118L148 111.5L154 76L243.5 0L259 6L251 80L217 133L221.5 136L247 202.5L280 241.5L247 299L180.5 325.5H98L31.5 299L0 241.5L31.5 202.5L58 136L67.5 133Z" fill="#0094FF"/>
<path d="M72 124L100 108L85 56.5L34.5 0L20 6L24 91.5L72 124Z" fill="white" fill-opacity="0.8"/>
<path d="M196 56.5L243.5 0L259 6L251 80L209 124L184 108L196 56.5Z" fill="white" fill-opacity="0.8"/>
<path d="M58 136L142 118L221.5 136H58Z" fill="#0094FF"/>
<path d="M58 136L142 118L221.5 136H58Z" fill="white" fill-opacity="0.1"/>
<path d="M73.5 235.5L31.5 202.5L58 136L96 203L85.5 223.5L73.5 235.5Z" fill="#0094FF"/>
<path d="M73.5 235.5L31.5 202.5L58 136L96 203L85.5 223.5L73.5 235.5Z" fill="black" fill-opacity="0.2"/>
<path d="M169.5 250.5H110.5L98 325.5H180.5L169.5 250.5Z" fill="#0094FF"/>
<path d="M169.5 250.5H110.5L98 325.5H180.5L169.5 250.5Z" fill="black" fill-opacity="0.05"/>
<path d="M139.5 275.5L110.5 250.5H169.5L139.5 275.5Z" fill="#3D1C04"/>
<path d="M139.5 304.5L98 325.5H180.5L139.5 304.5Z" fill="white" fill-opacity="0.8"/>
<path d="M139.5 275.5L169.5 250.5L180.5 325.5L139.5 304.5V275.5Z" fill="#0094FF"/>
<path d="M139.5 275.5L169.5 250.5L180.5 325.5L139.5 304.5V275.5Z" fill="white" fill-opacity="0.3"/>
<path d="M73.5 235.5L31.5 202.5L0 241.5L73.5 235.5Z" fill="#0094FF"/>
<path d="M73.5 235.5L31.5 202.5L0 241.5L73.5 235.5Z" fill="black" fill-opacity="0.25"/>
<path d="M0 241.5L73.5 235.5L31.5 299L0 241.5Z" fill="#0094FF"/>
<path d="M0 241.5L73.5 235.5L31.5 299L0 241.5Z" fill="black" fill-opacity="0.3"/>
<path d="M110.5 250.5L73.5 235.5L31.5 299L110.5 250.5Z" fill="#0094FF"/>
<path d="M110.5 250.5L73.5 235.5L31.5 299L110.5 250.5Z" fill="black" fill-opacity="0.2"/>
<path d="M110.5 250.5L31.5 299L98 325.5L110.5 250.5Z" fill="#0094FF"/>
<path d="M110.5 250.5L31.5 299L98 325.5L110.5 250.5Z" fill="black" fill-opacity="0.15"/>
<path d="M73.5 235.5L110.5 250.5L94 205L85.5 223.5L73.5 235.5Z" fill="#0094FF"/>
<path d="M73.5 235.5L110.5 250.5L94 205L85.5 223.5L73.5 235.5Z" fill="black" fill-opacity="0.3"/>
<path d="M209 237L247 202.5L221.5 136L179 188L195.5 224L209 237Z" fill="#0094FF"/>
<path d="M209 237L247 202.5L221.5 136L179 188L195.5 224L209 237Z" fill="white" fill-opacity="0.2"/>
<path d="M209 237L247 202.5L280 241.5L209 237Z" fill="#0094FF"/>
<path d="M209 237L247 202.5L280 241.5L209 237Z" fill="white" fill-opacity="0.3"/>
<path d="M280 241.5L209 237L247 299L280 241.5Z" fill="#0094FF"/>
<path d="M280 241.5L209 237L247 299L280 241.5Z" fill="white" fill-opacity="0.35"/>
<path d="M169.5 250.5L209 237L247 299L169.5 250.5Z" fill="#0094FF"/>
<path d="M169.5 250.5L209 237L247 299L169.5 250.5Z" fill="white" fill-opacity="0.3"/>
<path d="M169.5 250.5L247 299L180.5 325.5L169.5 250.5Z" fill="#0094FF"/>
<path d="M169.5 250.5L247 299L180.5 325.5L169.5 250.5Z" fill="white" fill-opacity="0.4"/>
<path d="M209 237.005L169.5 250.5L187.946 205.5L196.676 224.61L209 237.005Z" fill="#0094FF"/>
<path d="M209 237.005L169.5 250.5L187.946 205.5L196.676 224.61L209 237.005Z" fill="black" fill-opacity="0.05"/>
<path d="M79.5714 209.5L72.4286 213.184L71 222.026L74.5714 233.079L81.7143 237.5L90.2857 234.553L91 222.026L88.8571 212.447L79.5714 209.5Z" fill="black"/>
<path d="M80.1 210.5L73.1571 213.207L72 220.5H81L80.1 210.5Z" fill="white"/>
<path d="M221.5 136H58L110.5 250.5H169.5L221.5 136Z" fill="#0094FF"/>
<path d="M221.5 136H58L110.5 250.5H169.5L221.5 136Z" fill="white" fill-opacity="0.025"/>
<path d="M198.857 210.5L205.643 214.184L207 223.026L203.607 234.079L196.821 238.5L188.679 235.553L188 223.026L190.036 213.447L198.857 210.5Z" fill="black"/>
<path d="M198 210.5L205.333 214.382L206 220.206L198 221.5V210.5Z" fill="white"/>
</svg>
