<svg width="240" height="240" viewBox="0 0 240 240" fill="none" xmlns="http://www.w3.org/2000/svg">
<g clip-path="url(#clip0_947_1305)">
<rect width="240" height="240" rx="120" fill="black"/>
<path d="M64.3846 136.538C63.8718 137.051 63.8718 137.564 64.3846 138.077C68.9998 141.923 72.0767 145.256 73.6151 148.077C75.6664 151.923 77.7177 154.872 79.7689 156.923C86.6922 161.538 93.4868 162.692 100.154 160.385C99.8972 161.667 99.9614 164.487 100.346 168.846C100.731 173.205 100.538 175.897 99.7692 176.923C99.2562 178.205 98.4872 179.231 97.4615 180C97.2051 180.256 96.6923 180.641 95.9231 181.154C95.1539 181.666 94.577 182.115 94.1922 182.5C93.8074 182.885 93.7432 183.333 93.9998 183.846C94.2562 184.615 95.2819 185 97.0767 185L152.461 185C154.255 185 155.281 184.615 155.538 183.846C155.794 183.077 155.538 182.5 154.768 182.115C153.999 181.73 153.102 181.089 152.076 180.192C151.051 179.294 150.153 178.205 149.384 176.922L148.999 165.192V153.076C148.486 148.974 147.397 145.961 145.73 144.038C144.063 142.115 141.435 140.256 137.845 138.461C145.794 137.948 152.204 136.538 157.076 134.23C164.255 130.641 169.255 126.153 172.076 120.769C174.896 115.384 176.306 108.589 176.306 100.384C176.05 90.128 172.973 81.9229 167.076 75.7691C167.845 72.4358 168.037 68.8461 167.653 64.9999C167.268 61.1538 166.563 57.8205 165.537 55C159.896 55.2564 155.217 56.3462 151.499 58.2693C147.781 60.1926 145.024 61.795 143.23 63.0771C129.384 60.0002 116.05 60.1284 103.23 63.4617C96.5633 58.3335 89.1275 55.513 80.9224 55.0002C78.1019 63.2053 77.7173 70.5129 79.7685 76.9231C76.9482 80.0002 74.7688 83.4616 73.2303 87.3077C71.1789 93.4615 70.6018 100.256 71.4995 107.692C72.3969 115.128 74.897 121.154 78.9995 125.769C82.0764 129.102 86.2432 131.859 91.4995 134.038C96.7559 136.218 103.615 137.692 112.076 138.461C109.512 139.487 107.717 140.256 106.692 140.769C105.666 141.282 104.576 142.179 103.422 143.461C102.269 144.743 101.435 146.282 100.922 148.077C94.5122 152.436 88.2304 152.051 82.0766 146.923C80.7944 145.897 79.0635 144.038 76.8842 141.346C74.705 138.654 72.7177 136.923 70.9228 136.154C70.6664 135.897 69.769 135.641 68.2306 135.385C66.6923 135.128 65.4101 135.513 64.3846 136.538Z" fill="white"/>
</g>
<defs>
<clipPath id="clip0_947_1305">
<rect width="240" height="240" fill="white"/>
</clipPath>
</defs>
</svg>
