<svg width="240" height="240" viewBox="0 0 240 240" fill="none" xmlns="http://www.w3.org/2000/svg">
<g clip-path="url(#clip0_947_1306)">
<rect width="240" height="240" rx="120" fill="black"/>
<path d="M137.467 189.728C138.214 190.347 139.505 190.656 141.34 190.656C143.068 190.656 144.315 190.336 145.084 189.696C145.852 189.056 146.236 188.021 146.236 186.592V170.304C146.236 168.875 145.852 167.851 145.084 167.232C144.337 166.592 143.089 166.272 141.34 166.272C139.505 166.272 138.214 166.581 137.467 167.2C136.742 167.819 136.38 168.853 136.38 170.304V186.592C136.38 188.043 136.742 189.088 137.467 189.728Z" fill="white"/>
<path fill-rule="evenodd" clip-rule="evenodd" d="M59 147C52.3726 147 47 152.373 47 159V195C47 201.627 52.3726 207 59 207H182C188.627 207 194 201.627 194 195V159C194 152.373 188.627 147 182 147H59ZM113.708 196.032C111.021 198.976 105.549 200.448 97.2925 200.448C90.0818 200.448 85.1325 198.997 82.4445 196.096C79.7778 193.195 78.4445 189.888 78.4445 186.176H92.8765C92.9405 188.501 93.4205 189.877 94.3165 190.304C95.2125 190.709 96.4498 190.912 98.0285 190.912C99.6498 190.912 100.887 190.624 101.741 190.048C102.594 189.451 103.021 187.744 103.021 184.928C103.021 182.56 102.583 181.099 101.709 180.544C100.855 179.968 99.6285 179.68 98.0285 179.68C96.4712 179.68 95.2445 179.893 94.3485 180.32C93.4738 180.747 92.9832 181.355 92.8765 182.144H78.4445V156.8H116.493V166.592H92.8765V172.878C96.2297 171.589 99.8137 170.944 103.629 170.944C108.813 170.944 112.461 172.224 114.573 174.784C116.685 177.323 117.741 180.619 117.741 184.672C117.741 189.301 116.396 193.088 113.708 196.032ZM155.995 197.344C152.796 199.456 147.91 200.512 141.34 200.512C134.726 200.512 129.82 199.456 126.619 197.344C123.441 195.211 121.852 191.829 121.852 187.2V169.728C121.852 165.099 123.451 161.728 126.651 159.616C129.873 157.483 134.769 156.416 141.34 156.416C147.91 156.416 152.796 157.483 155.995 159.616C159.196 161.728 160.796 165.099 160.796 169.728V187.2C160.796 191.829 159.196 195.211 155.995 197.344Z" fill="white"/>
<path d="M64.3846 114.541C63.8718 115.054 63.8718 115.567 64.3846 116.08C68.9999 119.926 72.0769 123.259 73.6155 126.08C75.6668 129.926 77.7181 132.875 79.7695 134.926C86.6929 139.542 93.4878 140.696 100.155 138.388C99.8984 139.67 99.9626 142.491 100.347 146.85C100.732 151.209 100.54 153.901 99.7704 154.927L149.387 154.926L149.002 143.195V131.079C148.489 126.977 147.399 123.964 145.733 122.041C144.066 120.118 141.438 118.259 137.848 116.464C145.797 115.951 152.207 114.541 157.079 112.233C164.259 108.643 169.259 104.156 172.079 98.771C174.9 93.3863 176.31 86.5912 176.31 78.3859C176.054 68.1292 172.977 59.9238 167.079 53.7698C167.848 50.4364 168.041 46.8465 167.656 43.0003C167.271 39.154 166.566 35.8206 165.54 33C159.899 33.2564 155.22 34.3463 151.502 36.2694C147.784 38.1927 145.027 39.7953 143.232 41.0773C129.386 38.0003 116.052 38.1285 103.231 41.462C96.5644 36.3336 89.1283 33.513 80.923 33.0002C78.1024 41.2056 77.7177 48.5134 79.7691 54.9239C76.9487 58.0011 74.7691 61.4625 73.2306 65.3088C71.1791 71.4628 70.6021 78.2579 71.4997 85.694C72.3972 93.1301 74.8973 99.1559 79 103.771C82.077 107.105 86.2439 109.861 91.5005 112.041C96.757 114.22 103.616 115.695 112.078 116.464C109.514 117.49 107.719 118.259 106.693 118.772C105.667 119.285 104.577 120.182 103.424 121.464C102.27 122.746 101.437 124.285 100.924 126.08C94.5133 130.439 88.2312 130.054 82.0772 124.926C80.7949 123.9 79.064 122.041 76.8847 119.349C74.7053 116.656 72.718 114.926 70.9231 114.156C70.6667 113.9 69.7692 113.644 68.2307 113.387C66.6924 113.131 65.4101 113.515 64.3846 114.541Z" fill="white"/>
</g>
<defs>
<clipPath id="clip0_947_1306">
<rect width="240" height="240" fill="white"/>
</clipPath>
</defs>
</svg>
