<svg width="240" height="240" viewBox="0 0 240 240" fill="none" xmlns="http://www.w3.org/2000/svg">
<g clip-path="url(#clip0_947_1285)">
<rect width="240" height="240" rx="120" fill="black"/>
<path d="M178.326 116.676C178.326 108.582 171.741 101.997 163.647 101.997C159.131 101.997 154.976 104.016 152.206 107.476C144.434 103.941 135.571 101.762 126.197 101.072L134.252 75.6177L152.242 79.5156C153.62 84.8764 158.492 88.8506 164.276 88.8506C171.127 88.8506 176.701 83.2768 176.701 76.4255C176.701 69.5742 171.127 64 164.276 64C159.327 64 155.05 66.911 153.053 71.1088L132.294 66.6108C130.18 66.1528 128.061 67.3795 127.408 69.4442L117.466 100.86C106.493 101.128 96.0818 103.399 87.1201 107.476C84.3496 104.016 80.195 101.997 75.6789 101.997C67.585 101.997 61 108.582 61 116.676C61 120.607 62.5446 124.298 65.2871 127.039C63.6514 130.55 62.8231 134.201 62.8231 137.917C62.8231 148.003 68.8608 157.415 79.8247 164.422C90.4971 171.243 104.646 175 119.663 175C134.681 175 148.829 171.243 159.501 164.422C170.465 157.415 176.503 148.003 176.503 137.917C176.503 134.201 175.674 130.55 174.039 127.039C176.781 124.298 178.326 120.607 178.326 116.676ZM67.4457 121.708C66.518 120.202 66.0328 118.484 66.0328 116.676C66.0328 111.358 70.3597 107.03 75.6789 107.03C77.9621 107.03 80.1069 107.807 81.8227 109.235C75.6903 112.717 70.863 116.906 67.4457 121.708ZM89.5358 130.207C89.5358 124.426 94.2394 119.722 100.021 119.722C105.802 119.722 110.506 124.426 110.506 130.207C110.506 135.989 105.802 140.692 100.021 140.692C94.2394 140.692 89.5358 135.989 89.5358 130.207ZM141.172 154.136C137.085 158.597 128.843 161.368 119.663 161.368C110.483 161.368 102.242 158.597 98.1545 154.136C97.3975 153.31 97.0083 152.238 97.0569 151.119C97.1056 150 97.5879 148.967 98.4137 148.21C99.1891 147.5 100.195 147.108 101.246 147.108C102.419 147.108 103.546 147.604 104.339 148.469C106.772 151.125 113.073 152.98 119.663 152.98C126.252 152.98 132.554 151.125 134.987 148.469C135.78 147.604 136.906 147.108 138.08 147.108C139.132 147.108 140.137 147.5 140.913 148.21C141.739 148.967 142.221 150 142.269 151.119C142.318 152.238 141.929 153.31 141.172 154.136ZM139.305 140.692C133.524 140.692 128.82 135.989 128.82 130.207C128.82 124.426 133.524 119.722 139.305 119.722C145.086 119.722 149.79 124.426 149.79 130.207C149.79 135.989 145.086 140.692 139.305 140.692ZM171.88 121.708C168.463 116.906 163.636 112.718 157.503 109.235C159.219 107.806 161.364 107.03 163.647 107.03C168.966 107.03 173.293 111.358 173.293 116.676C173.293 118.484 172.808 120.202 171.88 121.708Z" fill="white"/>
</g>
<defs>
<clipPath id="clip0_947_1285">
<rect width="240" height="240" fill="white"/>
</clipPath>
</defs>
</svg>
