<svg width="240" height="240" viewBox="0 0 240 240" fill="none" xmlns="http://www.w3.org/2000/svg">
<g clip-path="url(#clip0_947_1287)">
<rect width="240" height="240" rx="120" fill="black"/>
<path fill-rule="evenodd" clip-rule="evenodd" d="M59 142C52.3726 142 47 147.373 47 154V190C47 196.627 52.3726 202 59 202H182C188.627 202 194 196.627 194 190V154C194 147.373 188.627 142 182 142H59ZM112.708 191.032C110.021 193.976 104.549 195.448 96.2925 195.448C89.0818 195.448 84.1325 193.997 81.4445 191.096C78.7778 188.195 77.4445 184.888 77.4445 181.176H91.8765C91.9405 183.501 92.4205 184.877 93.3165 185.304C94.2125 185.709 95.4498 185.912 97.0285 185.912C98.6498 185.912 99.8872 185.624 100.741 185.048C101.594 184.451 102.021 182.744 102.021 179.928C102.021 177.56 101.583 176.099 100.709 175.544C99.8552 174.968 98.6285 174.68 97.0285 174.68C95.4712 174.68 94.2445 174.893 93.3485 175.32C92.4738 175.747 91.9832 176.355 91.8765 177.144H77.4445V151.8H115.493V161.592H91.8765V167.878C95.2297 166.589 98.8137 165.944 102.629 165.944C107.813 165.944 111.461 167.224 113.573 169.784C115.685 172.323 116.741 175.619 116.741 179.672C116.741 184.301 115.396 188.088 112.708 191.032ZM136.147 195H121.619V151.8H136.147V169.528L147.411 151.8H163.668L149.299 173.432L163.668 195H147.411L136.147 177.304V195Z" fill="white"/>
<path d="M178.326 86.6764C178.326 78.5824 171.741 71.9975 163.647 71.9975C159.131 71.9975 154.976 74.0156 152.206 77.4765C144.434 73.9405 135.571 71.7618 126.197 71.0719L134.252 45.6177L152.242 49.5156C153.62 54.8764 158.492 58.8506 164.276 58.8506C171.127 58.8506 176.701 53.2768 176.701 46.4255C176.701 39.5742 171.127 34 164.276 34C159.327 34 155.05 36.911 153.053 41.1088L132.294 36.6108C130.18 36.1528 128.061 37.3795 127.408 39.4442L117.466 70.8601C106.493 71.1276 96.0818 73.3987 87.1201 77.4761C84.3496 74.0156 80.195 71.9975 75.6789 71.9975C67.585 71.9975 61 78.5824 61 86.6764C61 90.6074 62.5446 94.2981 65.2871 97.0393C63.6514 100.55 62.8231 104.201 62.8231 107.917C62.8231 118.003 68.8608 127.415 79.8247 134.422C90.4971 141.243 104.646 145 119.663 145C134.681 145 148.829 141.243 159.501 134.422C170.465 127.415 176.503 118.003 176.503 107.917C176.503 104.201 175.674 100.55 174.039 97.0393C176.781 94.2977 178.326 90.6074 178.326 86.6764ZM67.4457 91.7079C66.518 90.2023 66.0328 88.4836 66.0328 86.6764C66.0328 81.3576 70.3597 77.0302 75.6789 77.0302C77.9621 77.0302 80.1069 77.8066 81.8227 79.2354C75.6903 82.7173 70.863 86.9058 67.4457 91.7079ZM89.5358 100.207C89.5358 94.426 94.2394 89.7225 100.021 89.7225C105.802 89.7225 110.506 94.426 110.506 100.207C110.506 105.989 105.802 110.692 100.021 110.692C94.2394 110.692 89.5358 105.989 89.5358 100.207ZM141.172 124.136C137.085 128.597 128.843 131.368 119.663 131.368C110.483 131.368 102.242 128.597 98.1545 124.136C97.3975 123.31 97.0083 122.238 97.0569 121.119C97.1056 120 97.5879 118.967 98.4137 118.21C99.1891 117.5 100.195 117.108 101.246 117.108C102.419 117.108 103.546 117.604 104.339 118.469C106.772 121.125 113.073 122.98 119.663 122.98C126.252 122.98 132.554 121.125 134.987 118.469C135.78 117.604 136.906 117.108 138.08 117.108C139.132 117.108 140.137 117.5 140.913 118.21C141.739 118.967 142.221 120 142.269 121.119C142.318 122.238 141.929 123.31 141.172 124.136ZM139.305 110.692C133.524 110.692 128.82 105.989 128.82 100.207C128.82 94.426 133.524 89.7225 139.305 89.7225C145.086 89.7225 149.79 94.426 149.79 100.207C149.79 105.989 145.086 110.692 139.305 110.692ZM171.88 91.7079C168.463 86.9058 163.636 82.7177 157.503 79.2354C159.219 77.8061 161.364 77.0302 163.647 77.0302C168.966 77.0302 173.293 81.3576 173.293 86.6764C173.293 88.4836 172.808 90.2023 171.88 91.7079Z" fill="white"/>
</g>
<defs>
<clipPath id="clip0_947_1287">
<rect width="240" height="240" fill="white"/>
</clipPath>
</defs>
</svg>
