<svg width="240" height="240" viewBox="0 0 240 240" fill="none" xmlns="http://www.w3.org/2000/svg">
<g clip-path="url(#clip0_947_1315)">
<rect width="240" height="240" rx="120" fill="black"/>
<path fill-rule="evenodd" clip-rule="evenodd" d="M59 142C52.3726 142 47 147.373 47 154V190C47 196.627 52.3726 202 59 202H182C188.627 202 194 196.627 194 190V154C194 147.373 188.627 142 182 142H59ZM101.426 195H85.7783C85.7569 188.323 87.1969 182.061 90.0983 176.216C93.0209 170.371 96.6369 165.56 100.946 161.784V161.624H78.4823V151.8H116.402V161.56C111.944 166.317 108.317 171.48 105.522 177.048C102.749 182.595 101.384 188.579 101.426 195ZM134.054 195H119.526V151.8H134.054V169.528L145.318 151.8H161.574L147.206 173.432L161.574 195H145.318L134.054 177.304V195Z" fill="white"/>
<path d="M188.979 51.1396C183.939 53.3686 178.522 54.8745 172.838 55.552C178.64 52.0841 183.097 46.5926 185.195 40.0488C179.764 43.2606 173.75 45.5921 167.348 46.8487C162.223 41.4024 154.919 38 146.836 38C131.316 38 118.732 50.5461 118.732 66.0213C118.732 68.2176 118.981 70.3565 119.461 72.4074C96.1043 71.2389 75.3971 60.0825 61.5362 43.1288C59.1172 47.2674 57.731 52.0807 57.731 57.2163C57.731 66.9385 62.6923 75.5154 70.233 80.5404C65.6264 80.3949 61.2931 79.1342 57.5043 77.0356C57.5011 77.1524 57.5011 77.2698 57.5011 77.388C57.5011 90.9646 67.1882 102.29 80.0444 104.866C77.6863 105.506 75.2035 105.848 72.6407 105.848C70.8298 105.848 69.0697 105.672 67.3533 105.346C70.9298 116.478 81.308 124.58 93.606 124.805C83.988 132.321 71.8709 136.801 58.7038 136.801C56.4354 136.801 54.1985 136.668 52 136.41C64.437 144.361 79.2088 149 95.0792 149C146.77 149 175.038 106.301 175.038 69.27C175.038 68.055 175.011 66.8469 174.956 65.6443C180.447 61.6942 185.211 56.7594 188.978 51.1396H188.979Z" fill="white"/>
</g>
<defs>
<clipPath id="clip0_947_1315">
<rect width="240" height="240" fill="white"/>
</clipPath>
</defs>
</svg>
