<svg width="240" height="240" viewBox="0 0 240 240" fill="none" xmlns="http://www.w3.org/2000/svg">
<g clip-path="url(#clip0_947_1304)">
<rect width="240" height="240" rx="120" fill="black"/>
<path d="M115.967 184.728C116.714 185.347 118.005 185.656 119.84 185.656C121.568 185.656 122.815 185.336 123.584 184.696C124.352 184.056 124.736 183.021 124.736 181.592V165.304C124.736 163.875 124.352 162.851 123.584 162.232C122.837 161.592 121.589 161.272 119.84 161.272C118.005 161.272 116.714 161.581 115.967 162.2C115.242 162.819 114.88 163.853 114.88 165.304V181.592C114.88 183.043 115.242 184.088 115.967 184.728Z" fill="white"/>
<path d="M158.967 184.728C159.714 185.347 161.005 185.656 162.84 185.656C164.568 185.656 165.815 185.336 166.584 184.696C167.352 184.056 167.736 183.021 167.736 181.592V165.304C167.736 163.875 167.352 162.851 166.584 162.232C165.837 161.592 164.589 161.272 162.84 161.272C161.005 161.272 159.714 161.581 158.967 162.2C158.242 162.819 157.88 163.853 157.88 165.304V181.592C157.88 183.043 158.242 184.088 158.967 184.728Z" fill="white"/>
<path fill-rule="evenodd" clip-rule="evenodd" d="M59 142C52.3726 142 47 147.373 47 154V190C47 196.627 52.3726 202 59 202H182C188.627 202 194 196.627 194 190V154C194 147.373 188.627 142 182 142H59ZM92.2085 191.032C89.5205 193.976 84.0485 195.448 75.7925 195.448C68.5818 195.448 63.6325 193.997 60.9445 191.096C58.2778 188.195 56.9445 184.888 56.9445 181.176H71.3765C71.4405 183.501 71.9205 184.877 72.8165 185.304C73.7125 185.709 74.9498 185.912 76.5285 185.912C78.1498 185.912 79.3872 185.624 80.2405 185.048C81.0938 184.451 81.5205 182.744 81.5205 179.928C81.5205 177.56 81.0832 176.099 80.2085 175.544C79.3552 174.968 78.1285 174.68 76.5285 174.68C74.9712 174.68 73.7445 174.893 72.8485 175.32C71.9738 175.747 71.4832 176.355 71.3765 177.144H56.9445V151.8H94.9925V161.592H71.3765V167.878C74.7297 166.589 78.3137 165.944 82.1285 165.944C87.3125 165.944 90.9605 167.224 93.0725 169.784C95.1845 172.323 96.2405 175.619 96.2405 179.672C96.2405 184.301 94.8965 188.088 92.2085 191.032ZM134.495 192.344C131.296 194.456 126.41 195.512 119.84 195.512C113.226 195.512 108.319 194.456 105.119 192.344C101.941 190.211 100.352 186.829 100.352 182.2V164.728C100.352 160.099 101.951 156.728 105.152 154.616C108.373 152.483 113.269 151.416 119.84 151.416C126.41 151.416 131.296 152.483 134.495 154.616C137.696 156.728 139.296 160.099 139.296 164.728V182.2C139.296 186.829 137.696 190.211 134.495 192.344ZM177.495 192.344C174.296 194.456 169.41 195.512 162.84 195.512C156.226 195.512 151.32 194.456 148.119 192.344C144.941 190.211 143.352 186.829 143.352 182.2V164.728C143.352 160.099 144.951 156.728 148.151 154.616C151.373 152.483 156.269 151.416 162.84 151.416C169.41 151.416 174.296 152.483 177.495 154.616C180.695 156.728 182.296 160.099 182.296 164.728V182.2C182.296 186.829 180.695 190.211 177.495 192.344Z" fill="white"/>
<path d="M188.979 51.1396C183.939 53.3686 178.522 54.8745 172.838 55.552C178.64 52.0841 183.097 46.5926 185.195 40.0488C179.764 43.2606 173.75 45.5921 167.348 46.8487C162.223 41.4024 154.919 38 146.836 38C131.316 38 118.732 50.5461 118.732 66.0213C118.732 68.2176 118.981 70.3565 119.461 72.4074C96.1043 71.2389 75.3971 60.0825 61.5362 43.1288C59.1172 47.2674 57.731 52.0807 57.731 57.2163C57.731 66.9385 62.6923 75.5154 70.233 80.5404C65.6264 80.3949 61.2931 79.1342 57.5043 77.0356C57.5011 77.1524 57.5011 77.2698 57.5011 77.388C57.5011 90.9646 67.1882 102.29 80.0444 104.866C77.6863 105.506 75.2035 105.848 72.6407 105.848C70.8298 105.848 69.0697 105.672 67.3533 105.346C70.9298 116.478 81.308 124.58 93.606 124.805C83.988 132.321 71.8709 136.801 58.7038 136.801C56.4354 136.801 54.1985 136.668 52 136.41C64.437 144.361 79.2088 149 95.0792 149C146.77 149 175.038 106.301 175.038 69.27C175.038 68.055 175.011 66.8469 174.956 65.6443C180.447 61.6942 185.211 56.7594 188.978 51.1396H188.979Z" fill="white"/>
</g>
<defs>
<clipPath id="clip0_947_1304">
<rect width="240" height="240" fill="white"/>
</clipPath>
</defs>
</svg>
