<svg width="240" height="240" viewBox="0 0 240 240" fill="none" xmlns="http://www.w3.org/2000/svg">
<g clip-path="url(#clip0_947_1303)">
<rect width="240" height="240" rx="120" fill="black"/>
<path d="M188.979 77.1396C183.939 79.3686 178.522 80.8745 172.838 81.552C178.64 78.0841 183.097 72.5926 185.195 66.0488C179.764 69.2606 173.75 71.5921 167.348 72.8487C162.223 67.4024 154.919 64 146.836 64C131.316 64 118.732 76.5461 118.732 92.0213C118.732 94.2176 118.981 96.3565 119.461 98.4074C96.1043 97.2389 75.3971 86.0825 61.5362 69.1288C59.1172 73.2674 57.731 78.0807 57.731 83.2163C57.731 92.9385 62.6923 101.515 70.233 106.54C65.6264 106.395 61.2931 105.134 57.5043 103.036C57.5011 103.152 57.5011 103.27 57.5011 103.388C57.5011 116.965 67.1882 128.29 80.0444 130.866C77.6863 131.506 75.2035 131.848 72.6407 131.848C70.8298 131.848 69.0697 131.672 67.3533 131.346C70.9298 142.478 81.308 150.58 93.606 150.805C83.988 158.321 71.8709 162.801 58.7038 162.801C56.4354 162.801 54.1985 162.668 52 162.41C64.437 170.361 79.2088 175 95.0792 175C146.77 175 175.038 132.301 175.038 95.27C175.038 94.055 175.011 92.8469 174.956 91.6443C180.447 87.6942 185.211 82.7594 188.978 77.1396H188.979Z" fill="white"/>
</g>
<defs>
<clipPath id="clip0_947_1303">
<rect width="240" height="240" fill="white"/>
</clipPath>
</defs>
</svg>
