<svg width="240" height="240" viewBox="0 0 240 240" fill="none" xmlns="http://www.w3.org/2000/svg">
<g clip-path="url(#clip0_947_1323)">
<rect width="240" height="240" rx="120" fill="black"/>
<path d="M114.561 189.728C115.308 190.347 116.599 190.656 118.433 190.656C120.161 190.656 121.409 190.336 122.177 189.696C122.945 189.056 123.329 188.021 123.329 186.592V170.304C123.329 168.875 122.945 167.851 122.177 167.232C121.431 166.592 120.183 166.272 118.433 166.272C116.599 166.272 115.308 166.581 114.561 167.2C113.836 167.819 113.473 168.853 113.473 170.304V186.592C113.473 188.043 113.836 189.088 114.561 189.728Z" fill="white"/>
<path d="M157.561 189.728C158.308 190.347 159.599 190.656 161.433 190.656C163.161 190.656 164.409 190.336 165.177 189.696C165.945 189.056 166.329 188.021 166.329 186.592V170.304C166.329 168.875 165.945 167.851 165.177 167.232C164.431 166.592 163.183 166.272 161.433 166.272C159.599 166.272 158.308 166.581 157.561 167.2C156.836 167.819 156.473 168.853 156.473 170.304V186.592C156.473 188.043 156.836 189.088 157.561 189.728Z" fill="white"/>
<path fill-rule="evenodd" clip-rule="evenodd" d="M59 147C52.3726 147 47 152.373 47 159V195C47 201.627 52.3726 207 59 207H182C188.627 207 194 201.627 194 195V159C194 152.373 188.627 147 182 147H59ZM95.6628 200H58.7028V190.144H70.1908V168.384L58.5107 171.616V161.12L72.5908 156.736H84.6227V190.144H95.6628V200ZM133.089 197.344C129.889 199.456 125.004 200.512 118.433 200.512C111.82 200.512 106.913 199.456 103.713 197.344C100.535 195.211 98.9453 191.829 98.9453 187.2V169.728C98.9453 165.099 100.545 161.728 103.745 159.616C106.967 157.483 111.863 156.416 118.433 156.416C125.004 156.416 129.889 157.483 133.089 159.616C136.289 161.728 137.889 165.099 137.889 169.728V187.2C137.889 191.829 136.289 195.211 133.089 197.344ZM176.089 197.344C172.889 199.456 168.004 200.512 161.433 200.512C154.82 200.512 149.913 199.456 146.713 197.344C143.535 195.211 141.945 191.829 141.945 187.2V169.728C141.945 165.099 143.545 161.728 146.745 159.616C149.967 157.483 154.863 156.416 161.433 156.416C168.004 156.416 172.889 157.483 176.089 159.616C179.289 161.728 180.889 165.099 180.889 169.728V187.2C180.889 191.829 179.289 195.211 176.089 197.344Z" fill="white"/>
<path d="M64.3846 114.541C63.8718 115.054 63.8718 115.567 64.3846 116.08C68.9999 119.926 72.0769 123.259 73.6155 126.08C75.6668 129.926 77.7181 132.875 79.7695 134.926C86.6929 139.542 93.4878 140.696 100.155 138.388C99.8984 139.67 99.9626 142.491 100.347 146.85C100.732 151.209 100.54 153.901 99.7704 154.927L149.387 154.926L149.002 143.195V131.079C148.489 126.977 147.399 123.964 145.733 122.041C144.066 120.118 141.438 118.259 137.848 116.464C145.797 115.951 152.207 114.541 157.079 112.233C164.259 108.643 169.259 104.156 172.079 98.771C174.9 93.3863 176.31 86.5912 176.31 78.3859C176.054 68.1292 172.977 59.9238 167.079 53.7698C167.848 50.4364 168.041 46.8465 167.656 43.0003C167.271 39.154 166.566 35.8206 165.54 33C159.899 33.2564 155.22 34.3463 151.502 36.2694C147.784 38.1927 145.027 39.7953 143.232 41.0773C129.386 38.0003 116.052 38.1285 103.231 41.462C96.5644 36.3336 89.1283 33.513 80.923 33.0002C78.1024 41.2056 77.7177 48.5134 79.7691 54.9239C76.9487 58.0011 74.7691 61.4625 73.2306 65.3088C71.1791 71.4628 70.6021 78.2579 71.4997 85.694C72.3972 93.1301 74.8973 99.1559 79 103.771C82.077 107.105 86.2439 109.861 91.5005 112.041C96.757 114.22 103.616 115.695 112.078 116.464C109.514 117.49 107.719 118.259 106.693 118.772C105.667 119.285 104.577 120.182 103.424 121.464C102.27 122.746 101.437 124.285 100.924 126.08C94.5133 130.439 88.2312 130.054 82.0772 124.926C80.7949 123.9 79.064 122.041 76.8847 119.349C74.7053 116.656 72.718 114.926 70.9231 114.156C70.6667 113.9 69.7692 113.644 68.2307 113.387C66.6924 113.131 65.4101 113.515 64.3846 114.541Z" fill="white"/>
</g>
<defs>
<clipPath id="clip0_947_1323">
<rect width="240" height="240" fill="white"/>
</clipPath>
</defs>
</svg>
