<svg width="240" height="240" viewBox="0 0 240 240" fill="none" xmlns="http://www.w3.org/2000/svg">
<g clip-path="url(#clip0_947_1331)">
<rect width="240" height="240" rx="120" fill="black"/>
<path d="M115.967 189.728C116.714 190.347 118.005 190.656 119.84 190.656C121.568 190.656 122.815 190.336 123.584 189.696C124.352 189.056 124.736 188.021 124.736 186.592V170.304C124.736 168.875 124.352 167.851 123.584 167.232C122.837 166.592 121.589 166.272 119.84 166.272C118.005 166.272 116.714 166.581 115.967 167.2C115.242 167.819 114.88 168.853 114.88 170.304V186.592C114.88 188.043 115.242 189.088 115.967 189.728Z" fill="white"/>
<path d="M158.967 189.728C159.714 190.347 161.005 190.656 162.84 190.656C164.568 190.656 165.815 190.336 166.584 189.696C167.352 189.056 167.736 188.021 167.736 186.592V170.304C167.736 168.875 167.352 167.851 166.584 167.232C165.837 166.592 164.589 166.272 162.84 166.272C161.005 166.272 159.714 166.581 158.967 167.2C158.242 167.819 157.88 168.853 157.88 170.304V186.592C157.88 188.043 158.242 189.088 158.967 189.728Z" fill="white"/>
<path fill-rule="evenodd" clip-rule="evenodd" d="M59 147C52.3726 147 47 152.373 47 159V195C47 201.627 52.3726 207 59 207H182C188.627 207 194 201.627 194 195V159C194 152.373 188.627 147 182 147H59ZM92.2085 196.032C89.5205 198.976 84.0485 200.448 75.7925 200.448C68.5818 200.448 63.6325 198.997 60.9445 196.096C58.2778 193.195 56.9445 189.888 56.9445 186.176H71.3765C71.4405 188.501 71.9205 189.877 72.8165 190.304C73.7125 190.709 74.9498 190.912 76.5285 190.912C78.1498 190.912 79.3872 190.624 80.2405 190.048C81.0938 189.451 81.5205 187.744 81.5205 184.928C81.5205 182.56 81.0832 181.099 80.2085 180.544C79.3552 179.968 78.1285 179.68 76.5285 179.68C74.9712 179.68 73.7445 179.893 72.8485 180.32C71.9738 180.747 71.4832 181.355 71.3765 182.144H56.9445V156.8H94.9925V166.592H71.3765V172.878C74.7297 171.589 78.3137 170.944 82.1285 170.944C87.3125 170.944 90.9605 172.224 93.0725 174.784C95.1845 177.323 96.2405 180.619 96.2405 184.672C96.2405 189.301 94.8965 193.088 92.2085 196.032ZM134.495 197.344C131.296 199.456 126.41 200.512 119.84 200.512C113.226 200.512 108.319 199.456 105.119 197.344C101.941 195.211 100.352 191.829 100.352 187.2V169.728C100.352 165.099 101.951 161.728 105.152 159.616C108.373 157.483 113.269 156.416 119.84 156.416C126.41 156.416 131.296 157.483 134.495 159.616C137.696 161.728 139.296 165.099 139.296 169.728V187.2C139.296 191.829 137.696 195.211 134.495 197.344ZM177.495 197.344C174.296 199.456 169.41 200.512 162.84 200.512C156.226 200.512 151.32 199.456 148.119 197.344C144.941 195.211 143.352 191.829 143.352 187.2V169.728C143.352 165.099 144.951 161.728 148.151 159.616C151.373 157.483 156.269 156.416 162.84 156.416C169.41 156.416 174.296 157.483 177.495 159.616C180.695 161.728 182.296 165.099 182.296 169.728V187.2C182.296 191.829 180.695 195.211 177.495 197.344Z" fill="white"/>
<path d="M64.3846 114.541C63.8718 115.054 63.8718 115.567 64.3846 116.08C68.9999 119.926 72.0769 123.259 73.6155 126.08C75.6668 129.926 77.7181 132.875 79.7695 134.926C86.6929 139.542 93.4878 140.696 100.155 138.388C99.8984 139.67 99.9626 142.491 100.347 146.85C100.732 151.209 100.54 153.901 99.7704 154.927L149.387 154.926L149.002 143.195V131.079C148.489 126.977 147.399 123.964 145.733 122.041C144.066 120.118 141.438 118.259 137.848 116.464C145.797 115.951 152.207 114.541 157.079 112.233C164.259 108.643 169.259 104.156 172.079 98.771C174.9 93.3863 176.31 86.5912 176.31 78.3859C176.054 68.1292 172.977 59.9238 167.079 53.7698C167.848 50.4364 168.041 46.8465 167.656 43.0003C167.271 39.154 166.566 35.8206 165.54 33C159.899 33.2564 155.22 34.3463 151.502 36.2694C147.784 38.1927 145.027 39.7953 143.232 41.0773C129.386 38.0003 116.052 38.1285 103.231 41.462C96.5644 36.3336 89.1283 33.513 80.923 33.0002C78.1024 41.2056 77.7177 48.5134 79.7691 54.9239C76.9487 58.0011 74.7691 61.4625 73.2306 65.3088C71.1791 71.4628 70.6021 78.2579 71.4997 85.694C72.3972 93.1301 74.8973 99.1559 79 103.771C82.077 107.105 86.2439 109.861 91.5005 112.041C96.757 114.22 103.616 115.695 112.078 116.464C109.514 117.49 107.719 118.259 106.693 118.772C105.667 119.285 104.577 120.182 103.424 121.464C102.27 122.746 101.437 124.285 100.924 126.08C94.5133 130.439 88.2312 130.054 82.0772 124.926C80.7949 123.9 79.064 122.041 76.8847 119.349C74.7053 116.656 72.718 114.926 70.9231 114.156C70.6667 113.9 69.7692 113.644 68.2307 113.387C66.6924 113.131 65.4101 113.515 64.3846 114.541Z" fill="white"/>
</g>
<defs>
<clipPath id="clip0_947_1331">
<rect width="240" height="240" fill="white"/>
</clipPath>
</defs>
</svg>
