<svg width="240" height="240" viewBox="0 0 240 240" fill="none" xmlns="http://www.w3.org/2000/svg">
<g clip-path="url(#clip0_947_1286)">
<rect width="240" height="240" rx="120" fill="black"/>
<path fill-rule="evenodd" clip-rule="evenodd" d="M59 142C52.3726 142 47 147.373 47 154V190C47 196.627 52.3726 202 59 202H182C188.627 202 194 196.627 194 190V154C194 147.373 188.627 142 182 142H59ZM116.163 195H79.2028V185.144H90.6908V163.384L79.0107 166.616V156.12L93.0908 151.736H105.123V185.144H116.163V195ZM134.741 195H120.213V151.8H134.741V169.528L146.005 151.8H162.261L147.893 173.432L162.261 195H146.005L134.741 177.304V195Z" fill="white"/>
<path d="M178.326 86.6764C178.326 78.5824 171.741 71.9975 163.647 71.9975C159.131 71.9975 154.976 74.0156 152.206 77.4765C144.434 73.9405 135.571 71.7618 126.197 71.0719L134.252 45.6177L152.242 49.5156C153.62 54.8764 158.492 58.8506 164.276 58.8506C171.127 58.8506 176.701 53.2768 176.701 46.4255C176.701 39.5742 171.127 34 164.276 34C159.327 34 155.05 36.911 153.053 41.1088L132.294 36.6108C130.18 36.1528 128.061 37.3795 127.408 39.4442L117.466 70.8601C106.493 71.1276 96.0818 73.3987 87.1201 77.4761C84.3496 74.0156 80.195 71.9975 75.6789 71.9975C67.585 71.9975 61 78.5824 61 86.6764C61 90.6074 62.5446 94.2981 65.2871 97.0393C63.6514 100.55 62.8231 104.201 62.8231 107.917C62.8231 118.003 68.8608 127.415 79.8247 134.422C90.4971 141.243 104.646 145 119.663 145C134.681 145 148.829 141.243 159.501 134.422C170.465 127.415 176.503 118.003 176.503 107.917C176.503 104.201 175.674 100.55 174.039 97.0393C176.781 94.2977 178.326 90.6074 178.326 86.6764ZM67.4457 91.7079C66.518 90.2023 66.0328 88.4836 66.0328 86.6764C66.0328 81.3576 70.3597 77.0302 75.6789 77.0302C77.9621 77.0302 80.1069 77.8065 81.8227 79.2354C75.6903 82.7173 70.863 86.9058 67.4457 91.7079ZM89.5358 100.207C89.5358 94.426 94.2394 89.7225 100.021 89.7225C105.802 89.7225 110.506 94.426 110.506 100.207C110.506 105.989 105.802 110.692 100.021 110.692C94.2394 110.692 89.5358 105.989 89.5358 100.207ZM141.172 124.136C137.085 128.597 128.843 131.368 119.663 131.368C110.483 131.368 102.242 128.597 98.1545 124.136C97.3975 123.31 97.0083 122.238 97.0569 121.119C97.1056 120 97.5879 118.967 98.4137 118.21C99.1891 117.5 100.195 117.108 101.246 117.108C102.419 117.108 103.546 117.604 104.339 118.469C106.772 121.125 113.073 122.98 119.663 122.98C126.252 122.98 132.554 121.125 134.987 118.469C135.78 117.604 136.906 117.108 138.08 117.108C139.132 117.108 140.137 117.5 140.913 118.21C141.739 118.967 142.221 120 142.269 121.119C142.318 122.238 141.929 123.31 141.172 124.136ZM139.305 110.692C133.524 110.692 128.82 105.989 128.82 100.207C128.82 94.426 133.524 89.7225 139.305 89.7225C145.086 89.7225 149.79 94.426 149.79 100.207C149.79 105.989 145.086 110.692 139.305 110.692ZM171.88 91.7079C168.463 86.9058 163.636 82.7177 157.503 79.2354C159.219 77.8061 161.364 77.0302 163.647 77.0302C168.966 77.0302 173.293 81.3576 173.293 86.6764C173.293 88.4836 172.808 90.2023 171.88 91.7079Z" fill="white"/>
</g>
<defs>
<clipPath id="clip0_947_1286">
<rect width="240" height="240" fill="white"/>
</clipPath>
</defs>
</svg>
